<?xml version="1.0" encoding="UTF-8"?>
<svg version="1.1" xmlns="http://www.w3.org/2000/svg" width="200" height="200">
<path d="M0 0 C66 0 132 0 200 0 C200 66 200 132 200 200 C134 200 68 200 0 200 C0 134 0 68 0 0 Z " fill="#000000" transform="translate(0,0)"/>
<path d="M0 0 C66 0 132 0 200 0 C200 66 200 132 200 200 C134 200 68 200 0 200 C0 134 0 68 0 0 Z M94 6 C94 9.3 94 12.6 94 16 C92.824375 16.0825 91.64875 16.165 90.4375 16.25 C68.8955313 18.74859825 49.02780139 29.38812994 35 46 C24.56227737 59.64102371 16 76.42493309 16 94 C12.7 94 9.4 94 6 94 C6 97.96 6 101.92 6 106 C9.3 106 12.6 106 16 106 C16.103125 107.423125 16.20625 108.84625 16.3125 110.3125 C18.00429605 126.44095565 24.82092554 141.49307068 35 154 C35.44472656 154.60714844 35.88945313 155.21429688 36.34765625 155.83984375 C46.77874133 169.39706442 64.62009457 179.17311581 81 183 C85.33247416 183.54912132 89.63609648 183.85922892 94 184 C94 187.3 94 190.6 94 194 C97.96 194 101.92 194 106 194 C106 190.7 106 187.4 106 184 C107.07314453 183.96132813 107.07314453 183.96132813 108.16796875 183.921875 C126.99305698 182.85033052 144.23994008 174.71938311 158 162 C158.65355469 161.41476563 159.30710938 160.82953125 159.98046875 160.2265625 C174.70554303 146.37914166 183.35580052 125.97018401 184 106 C187.3 106 190.6 106 194 106 C194 102.04 194 98.08 194 94 C190.7 94 187.4 94 184 94 C183.96132813 92.80117187 183.96132813 92.80117187 183.921875 91.578125 C183.00526466 73.82921572 175.59721152 58.33183717 164 45 C162.824375 43.453125 162.824375 43.453125 161.625 41.875 C150.24980582 29.416454 132.78137732 19.59005181 116 17 C114.23022239 16.93540958 112.45829848 16.91388935 110.6875 16.9375 C109.140625 16.958125 107.59375 16.97875 106 17 C106 13.37 106 9.74 106 6 C102.04 6 98.08 6 94 6 Z " fill="#000000" transform="translate(0,0)"/>
<path d="M0 0 C3.96 0 7.92 0 12 0 C12 3.63 12 7.26 12 11 C13.423125 10.938125 14.84625 10.87625 16.3125 10.8125 C33.74660431 10.86154108 52.4533165 21.16586402 65.01171875 32.890625 C79.89228087 48.6774689 89.00701152 66.1542535 90 88 C93.3 88 96.6 88 100 88 C100 91.96 100 95.92 100 100 C96.7 100 93.4 100 90 100 C89.99742187 100.74121094 89.99484375 101.48242188 89.9921875 102.24609375 C89.14745611 125.25094537 76.78560031 143.90146337 60.5703125 159.30859375 C47.22479792 170.83426543 29.47746929 177.37018129 12 178 C12 181.3 12 184.6 12 188 C8.04 188 4.08 188 0 188 C0 184.7 0 181.4 0 178 C-0.77601562 177.98582031 -1.55203125 177.97164062 -2.3515625 177.95703125 C-20.03049176 177.176458 -35.73591946 169.379436 -49 158 C-50.03125 157.21625 -51.0625 156.4325 -52.125 155.625 C-66.39893815 142.59227386 -75.82895137 123.11818942 -78 104 C-78 102.68 -78 101.36 -78 100 C-81.3 100 -84.6 100 -88 100 C-88 96.04 -88 92.08 -88 88 C-84.7 88 -81.4 88 -78 88 C-77.9175 86.824375 -77.835 85.64875 -77.75 84.4375 C-75.25140175 62.8955313 -64.61187006 43.02780139 -48 29 C-34.35897629 18.56227737 -17.57506691 10 0 10 C0 6.7 0 3.4 0 0 Z M-42.8671875 40.8671875 C-43.57101563 41.57101563 -44.27484375 42.27484375 -45 43 C-45.62132813 43.53882812 -46.24265625 44.07765625 -46.8828125 44.6328125 C-57.52298591 54.12785514 -64.14533572 70.0900179 -66 84 C-66 85.32 -66 86.64 -66 88 C-50.49 88 -34.98 88 -19 88 C-19 91.96 -19 95.92 -19 100 C-34.51 100 -50.02 100 -66 100 C-62.5985997 122.10910197 -55.05498829 138.72182741 -37.25 152.75 C-26.00224835 160.849526 -13.86025399 166 0 166 C0 160.72 0 155.44 0 150 C3.96 150 7.92 150 12 150 C12 155.28 12 160.56 12 166 C28.79026878 166 43.58339208 158.79667759 55.69140625 147.30859375 C56.45324219 146.54675781 57.21507812 145.78492188 58 145 C58.71027344 144.28972656 59.42054688 143.57945312 60.15234375 142.84765625 C67.79625361 134.73425481 72.75035556 125.81823586 75.9375 115.1875 C76.14914795 114.48238281 76.3607959 113.77726562 76.57885742 113.05078125 C77.88952363 108.31921486 78 105.24277802 78 100 C72.72 100 67.44 100 62 100 C62 96.04 62 92.08 62 88 C67.28 88 72.56 88 78 88 C78 70.06560354 69.50007729 54.31457339 57.0078125 41.80859375 C52.9992567 37.97946855 48.78558899 34.80203978 44 32 C43.11183594 31.46890625 42.22367187 30.9378125 41.30859375 30.390625 C32.7202405 25.66995192 21.91713387 22 12 22 C12 37.51 12 53.02 12 69 C8.04 69 4.08 69 0 69 C0 53.49 0 37.98 0 22 C-15.98866817 22 -31.6047364 29.90209485 -42.8671875 40.8671875 Z " fill="#D4A01F" transform="translate(94,6)"/>
<path d="M0 0 C3.96 0 7.92 0 12 0 C12 3.63 12 7.26 12 11 C15.96 11 19.92 11 24 11 C24 14.96 24 18.92 24 23 C20.04 23 16.08 23 12 23 C12 26.96 12 30.92 12 35 C8.04 35 4.08 35 0 35 C0 31.04 0 27.08 0 23 C-3.63 23 -7.26 23 -11 23 C-11 19.04 -11 15.08 -11 11 C-7.37 11 -3.74 11 0 11 C0 7.37 0 3.74 0 0 Z " fill="#D29F1E" transform="translate(94,83)"/>
</svg>
